<svg width="20" height="20" viewBox="0 0 20 20" fill="none" xmlns="http://www.w3.org/2000/svg">
<rect width="20" height="20" fill="#F2F2F2"/>
<g id="Mask Group">
<g id="wp-pusher">
<rect width="1440" height="1170" transform="translate(-887 -417)" fill="#F5F8FA"/>
<g id="Panel">
<g id="Rectangle 7 Copy" filter="url(#filter0_dd_0_1)">
<rect x="-625" y="-231" width="892" height="795" rx="6" fill="white"/>
</g>
<g id="sidebar">
<path id="Rectangle 9" d="M-45 -231H261C264.314 -231 267 -228.314 267 -225V558C267 561.314 264.314 564 261 564H-45V-231Z" fill="#1179BF"/>
<g id="side bar content">
<g id="Details" clip-path="url(#clip0_0_1)">
<path id="Combined Shape" fill-rule="evenodd" clip-rule="evenodd" d="M10 20C4.47715 20 0 15.5228 0 10C0 4.47715 4.47715 0 10 0C15.5228 0 20 4.47715 20 10C20 15.5228 15.5228 20 10 20ZM10 18C14.4183 18 18 14.4183 18 10C18 5.58172 14.4183 2 10 2C5.58172 2 2 5.58172 2 10C2 14.4183 5.58172 18 10 18ZM6.29289 9.29289C6.68342 8.90237 7.31658 8.90237 7.70711 9.29289L9 10.5858L12.2929 7.29289C12.6834 6.90237 13.3166 6.90237 13.7071 7.29289C14.0976 7.68342 14.0976 8.31658 13.7071 8.70711L9.70711 12.7071C9.31658 13.0976 8.68342 13.0976 8.29289 12.7071L6.29289 10.7071C5.90237 10.3166 5.90237 9.68342 6.29289 9.29289Z" fill="#B9F5FF"/>
</g>
</g>
</g>
</g>
</g>
</g>
<defs>
<filter id="filter0_dd_0_1" x="-660" y="-251" width="962" height="865" filterUnits="userSpaceOnUse" color-interpolation-filters="sRGB">
<feFlood flood-opacity="0" result="BackgroundImageFix"/>
<feColorMatrix in="SourceAlpha" type="matrix" values="0 0 0 0 0 0 0 0 0 0 0 0 0 0 0 0 0 0 127 0" result="hardAlpha"/>
<feOffset dy="5"/>
<feGaussianBlur stdDeviation="7.5"/>
<feColorMatrix type="matrix" values="0 0 0 0 0 0 0 0 0 0 0 0 0 0 0 0 0 0 0.0490829 0"/>
<feBlend mode="normal" in2="BackgroundImageFix" result="effect1_dropShadow_0_1"/>
<feColorMatrix in="SourceAlpha" type="matrix" values="0 0 0 0 0 0 0 0 0 0 0 0 0 0 0 0 0 0 127 0" result="hardAlpha"/>
<feOffset dy="15"/>
<feGaussianBlur stdDeviation="17.5"/>
<feColorMatrix type="matrix" values="0 0 0 0 0.167329 0 0 0 0 0.250381 0 0 0 0 0.306282 0 0 0 0.095505 0"/>
<feBlend mode="normal" in2="effect1_dropShadow_0_1" result="effect2_dropShadow_0_1"/>
<feBlend mode="normal" in="SourceGraphic" in2="effect2_dropShadow_0_1" result="shape"/>
</filter>
<clipPath id="clip0_0_1">
<rect width="170" height="96" fill="white" transform="translate(0 -1)"/>
</clipPath>
</defs>
</svg>
